<mxfile host="app.diagrams.net" agent="Mozilla/5.0 (Windows NT 10.0; Win64; x64) AppleWebKit/537.36 (KHTML, like Gecko) Chrome/131.0.0.0 Safari/537.36" version="26.0.2">
  <diagram name="Page-1" id="hWlVpRbGZzzfVHfW1Qd1">
    <mxGraphModel dx="1195" dy="615" grid="1" gridSize="10" guides="1" tooltips="1" connect="1" arrows="1" fold="1" page="1" pageScale="1" pageWidth="1100" pageHeight="850" math="0" shadow="0">
      <root>
        <mxCell id="0" />
        <mxCell id="1" parent="0" />
        <mxCell id="rpd5ZpFlm4TKsZaK4LnD-16" value="" style="rounded=0;whiteSpace=wrap;html=1;" vertex="1" parent="1">
          <mxGeometry x="280" y="110" width="460" height="370" as="geometry" />
        </mxCell>
        <mxCell id="rpd5ZpFlm4TKsZaK4LnD-5" style="edgeStyle=orthogonalEdgeStyle;rounded=0;orthogonalLoop=1;jettySize=auto;html=1;exitX=1;exitY=1;exitDx=0;exitDy=0;entryX=0;entryY=1;entryDx=0;entryDy=0;" edge="1" parent="1" source="rpd5ZpFlm4TKsZaK4LnD-1" target="rpd5ZpFlm4TKsZaK4LnD-2">
          <mxGeometry relative="1" as="geometry" />
        </mxCell>
        <mxCell id="rpd5ZpFlm4TKsZaK4LnD-9" value="Disewa" style="edgeLabel;html=1;align=center;verticalAlign=middle;resizable=0;points=[];" vertex="1" connectable="0" parent="rpd5ZpFlm4TKsZaK4LnD-5">
          <mxGeometry x="-0.0297" y="2" relative="1" as="geometry">
            <mxPoint as="offset" />
          </mxGeometry>
        </mxCell>
        <mxCell id="rpd5ZpFlm4TKsZaK4LnD-14" style="edgeStyle=orthogonalEdgeStyle;rounded=0;orthogonalLoop=1;jettySize=auto;html=1;exitX=0.5;exitY=0;exitDx=0;exitDy=0;entryX=0.5;entryY=1;entryDx=0;entryDy=0;" edge="1" parent="1" source="rpd5ZpFlm4TKsZaK4LnD-1" target="rpd5ZpFlm4TKsZaK4LnD-10">
          <mxGeometry relative="1" as="geometry" />
        </mxCell>
        <mxCell id="rpd5ZpFlm4TKsZaK4LnD-15" value="Tidak Bisa DiPakai" style="edgeLabel;html=1;align=center;verticalAlign=middle;resizable=0;points=[];" vertex="1" connectable="0" parent="rpd5ZpFlm4TKsZaK4LnD-14">
          <mxGeometry x="-0.0238" y="3" relative="1" as="geometry">
            <mxPoint as="offset" />
          </mxGeometry>
        </mxCell>
        <mxCell id="rpd5ZpFlm4TKsZaK4LnD-1" value="Tersedia" style="ellipse;whiteSpace=wrap;html=1;aspect=fixed;" vertex="1" parent="1">
          <mxGeometry x="320" y="330" width="110" height="110" as="geometry" />
        </mxCell>
        <mxCell id="rpd5ZpFlm4TKsZaK4LnD-6" style="edgeStyle=orthogonalEdgeStyle;rounded=0;orthogonalLoop=1;jettySize=auto;html=1;exitX=0;exitY=0;exitDx=0;exitDy=0;entryX=1;entryY=0;entryDx=0;entryDy=0;" edge="1" parent="1" source="rpd5ZpFlm4TKsZaK4LnD-2" target="rpd5ZpFlm4TKsZaK4LnD-1">
          <mxGeometry relative="1" as="geometry" />
        </mxCell>
        <mxCell id="rpd5ZpFlm4TKsZaK4LnD-7" value="Dikembalikan" style="edgeLabel;html=1;align=center;verticalAlign=middle;resizable=0;points=[];" vertex="1" connectable="0" parent="rpd5ZpFlm4TKsZaK4LnD-6">
          <mxGeometry x="0.0297" y="-1" relative="1" as="geometry">
            <mxPoint as="offset" />
          </mxGeometry>
        </mxCell>
        <mxCell id="rpd5ZpFlm4TKsZaK4LnD-2" value="DiPinjam" style="ellipse;whiteSpace=wrap;html=1;aspect=fixed;" vertex="1" parent="1">
          <mxGeometry x="600" y="330" width="110" height="110" as="geometry" />
        </mxCell>
        <mxCell id="rpd5ZpFlm4TKsZaK4LnD-12" style="edgeStyle=orthogonalEdgeStyle;rounded=0;orthogonalLoop=1;jettySize=auto;html=1;exitX=1;exitY=0.5;exitDx=0;exitDy=0;entryX=0;entryY=0.5;entryDx=0;entryDy=0;" edge="1" parent="1" source="rpd5ZpFlm4TKsZaK4LnD-10" target="rpd5ZpFlm4TKsZaK4LnD-11">
          <mxGeometry relative="1" as="geometry" />
        </mxCell>
        <mxCell id="rpd5ZpFlm4TKsZaK4LnD-13" value="DiJual" style="edgeLabel;html=1;align=center;verticalAlign=middle;resizable=0;points=[];" vertex="1" connectable="0" parent="rpd5ZpFlm4TKsZaK4LnD-12">
          <mxGeometry x="0.0294" relative="1" as="geometry">
            <mxPoint as="offset" />
          </mxGeometry>
        </mxCell>
        <mxCell id="rpd5ZpFlm4TKsZaK4LnD-10" value="Rusak" style="ellipse;whiteSpace=wrap;html=1;aspect=fixed;" vertex="1" parent="1">
          <mxGeometry x="320" y="150" width="110" height="110" as="geometry" />
        </mxCell>
        <mxCell id="rpd5ZpFlm4TKsZaK4LnD-11" value="Terjual" style="ellipse;whiteSpace=wrap;html=1;aspect=fixed;" vertex="1" parent="1">
          <mxGeometry x="600" y="150" width="110" height="110" as="geometry" />
        </mxCell>
        <mxCell id="rpd5ZpFlm4TKsZaK4LnD-17" value="&lt;span style=&quot;font-size:12.0pt;font-family:&lt;br/&gt;&amp;quot;Times New Roman&amp;quot;,serif;mso-fareast-font-family:&amp;quot;Times New Roman&amp;quot;;mso-ansi-language:&lt;br/&gt;EN-US;mso-fareast-language:EN-US;mso-bidi-language:AR-SA&quot; lang=&quot;EN-US&quot;&gt;state transition&lt;br&gt;diagram battery&lt;/span&gt;" style="rounded=0;whiteSpace=wrap;html=1;" vertex="1" parent="1">
          <mxGeometry x="280" y="60" width="460" height="50" as="geometry" />
        </mxCell>
      </root>
    </mxGraphModel>
  </diagram>
</mxfile>
